<svg width="1249" height="246" viewBox="0 0 1249 246" fill="none" xmlns="http://www.w3.org/2000/svg">
<path d="M1216.65 62.7192C1215.22 50.9634 1209.38 41.8272 1199.14 35.3107C1188.9 28.8158 1176.34 25.5467 1161.48 25.5467C1150.61 25.5467 1141.08 27.257 1132.92 30.656C1124.85 34.055 1118.54 38.753 1113.96 44.7066C1109.49 50.6603 1107.25 57.4367 1107.25 65.0357C1107.25 71.3791 1108.82 76.8348 1111.92 81.4029C1115.11 85.8844 1119.21 89.6514 1124.16 92.6608C1129.1 95.6051 1134.31 98.0515 1139.76 99.9784C1145.2 101.84 1150.19 103.356 1154.75 104.503L1179.7 110.998C1186.1 112.622 1193.22 114.873 1201.05 117.731C1208.97 120.589 1216.52 124.507 1223.72 129.465C1230.99 134.336 1237 140.615 1241.71 148.279C1246.42 155.943 1248.79 165.339 1248.79 176.488C1248.79 189.348 1245.31 200.953 1238.35 211.323C1231.47 221.693 1221.4 229.942 1208.12 236.047C1194.93 242.152 1178.9 245.226 1160.02 245.226C1142.43 245.226 1127.19 242.477 1114.31 236.978C1101.5 231.479 1091.44 223.815 1084.08 213.986C1076.81 204.157 1072.69 192.747 1071.74 179.736H1102.46C1103.26 188.721 1106.39 196.146 1111.81 202.035C1117.32 207.837 1124.29 212.167 1132.68 215.047C1141.17 217.839 1150.28 219.225 1160.04 219.225C1171.39 219.225 1181.59 217.45 1190.64 213.877C1199.68 210.24 1206.82 205.218 1212.12 198.788C1217.39 192.293 1220.04 184.694 1220.04 176.034C1220.04 168.132 1217.76 161.723 1213.2 156.766C1208.65 151.808 1202.63 147.781 1195.19 144.685C1187.75 141.589 1179.72 138.883 1171.09 136.566L1140.86 128.21C1121.66 122.862 1106.47 115.241 1095.28 105.326C1084.08 95.4103 1078.48 82.4421 1078.48 66.4213C1078.48 53.1067 1082.19 41.5025 1089.64 31.5869C1097.16 21.6064 1107.23 13.8558 1119.86 8.35679C1132.57 2.79281 1146.76 0 1162.45 0C1178.14 0 1192.35 2.74951 1204.67 8.24854C1216.98 13.661 1226.74 21.1085 1233.94 30.5477C1241.21 39.987 1245.05 50.7036 1245.47 62.7192H1216.67H1216.65Z" fill="white"/>
<path d="M1071.74 122.646C1071.74 148.127 1066.98 170.037 1057.48 188.374C1047.98 206.625 1034.94 220.697 1018.36 230.569C1001.87 240.355 983.145 245.248 962.121 245.248C941.096 245.248 922.22 240.355 905.643 230.569C889.153 220.697 876.156 206.603 866.653 188.266C857.15 169.929 852.376 148.062 852.376 122.646C852.376 97.2288 857.128 75.276 866.653 57.0253C876.156 38.688 889.153 24.6157 905.643 14.83C922.22 4.95774 941.053 0.0216064 962.121 0.0216064C983.189 0.0216064 1001.87 4.95774 1018.36 14.83C1034.94 24.6157 1047.98 38.688 1057.48 57.0253C1066.98 75.276 1071.74 97.1639 1071.74 122.646ZM1035.37 122.646C1035.37 103.226 1032.16 86.8586 1025.74 73.5657C1019.4 60.2078 1010.68 50.0974 999.57 43.2561C988.548 36.3498 976.072 32.8859 962.121 32.8859C948.17 32.8859 935.563 36.3498 924.563 43.2561C913.541 50.0974 904.84 60.1862 898.396 73.5657C892.06 86.8586 888.893 103.204 888.893 122.646C888.893 142.087 892.06 158.476 898.396 171.834C904.818 185.127 913.541 195.215 924.563 202.143C935.585 208.985 948.104 212.405 962.121 212.405C976.137 212.405 988.548 208.985 999.57 202.143C1010.66 195.237 1019.38 185.127 1025.74 171.834C1032.16 158.476 1035.37 142.065 1035.37 122.646Z" fill="white"/>
<path d="M801.561 245.529H851.313L798.133 148.301C855.501 127.733 857.28 35.3107 803.124 9.85062C790.322 3.31241 774.505 0 755.563 0H663.307V245.529H707.873V37.1726C724.623 37.8437 761.964 34.488 776.002 42.1087C803.883 53.7562 804.599 102.728 776.132 114.137C766.39 119.095 746.993 118.857 734.191 118.684L801.561 245.529Z" fill="white"/>
<path d="M623.161 0.0216064V166.378H570.421V0.0216064H623.161Z" fill="white"/>
<path d="M623.161 192.531V245.27H570.421V192.531H623.161Z" fill="#00A9F1"/>
<path d="M530.665 79.1296V245.486H477.925V79.1296H530.665Z" fill="white"/>
<path d="M530.665 0.0216064V52.7603H477.925V0.0216064H530.665Z" fill="#00A9F1"/>
<path d="M270.196 245.269H206.124L289.333 0.0216064H368.68L451.889 245.248H387.817L329.907 61.8099H327.976L270.174 245.248L270.196 245.269Z" fill="white"/>
<path d="M138.862 78.0257C138.211 70.2319 135.217 64.1699 129.858 59.8183C124.564 55.4667 116.514 53.2801 105.709 53.2801C98.831 53.2801 93.168 54.1028 88.7634 55.7265C84.4457 57.2853 81.2345 59.4286 79.1515 62.1565C77.0686 64.8844 75.9837 68.0019 75.897 71.5092C75.7451 74.3886 76.2658 77.0082 77.4592 79.3247C78.7393 81.5763 80.7354 83.6547 83.4693 85.5165C86.1815 87.3135 89.6747 88.9372 93.9274 90.431C98.18 91.9249 103.214 93.2238 109.072 94.3929L129.25 98.593C142.855 101.386 154.506 105.088 164.205 109.678C173.903 114.267 181.823 119.68 187.985 125.915C194.147 132.063 198.682 138.991 201.567 146.699C204.54 154.406 206.059 162.806 206.124 171.921C206.037 187.638 202.001 200.953 193.995 211.864C185.989 222.754 174.533 231.046 159.648 236.74C144.829 242.434 127.016 245.27 106.186 245.27C85.357 245.27 66.1549 242.195 50.2074 236.047C34.3467 229.898 22.0227 220.438 13.2136 207.664C4.49133 194.804 0.086789 178.394 0 158.368H63.421C63.8116 165.685 65.6993 171.834 69.0623 176.813C72.4254 181.793 77.1554 185.581 83.2306 188.136C89.3926 190.712 96.7263 191.99 105.21 191.99C112.327 191.99 118.293 191.124 123.11 189.413C127.905 187.703 131.55 185.322 134.046 182.291C136.519 179.26 137.799 175.796 137.886 171.899C137.799 168.24 136.562 165.058 134.154 162.33C131.832 159.537 127.992 157.026 122.633 154.861C117.274 152.609 110.027 150.509 100.892 148.56L76.396 143.43C54.612 138.84 37.4277 131.176 24.865 120.416C12.3674 109.591 6.16202 94.8476 6.24881 76.1639C6.16202 60.9874 10.3279 47.7162 18.7464 36.3501C27.23 24.8974 38.9683 15.9993 53.9394 9.61267C68.9972 3.22601 86.2465 0.0218506 105.709 0.0218506C125.171 0.0218506 142.746 3.24766 157.24 9.72092C171.734 16.1725 182.908 25.2871 190.762 37.0428C198.682 48.712 202.696 62.373 202.782 78.0257H138.884H138.862Z" fill="white"/>
</svg>
